IKResults
version=1
nRows=38
nColumns=17
inDegrees=yes

Units are S.I. units (second, meters, Newtons, ...)
If the header above contains a line with 'inDegrees', this indicates whether rotational values are in degrees (yes) or radians (no).

endheader
time	ground_to_pelvis_rx	ground_to_pelvis_ry	ground_to_pelvis_rz	ground_to_pelvis_tx	ground_to_pelvis_ty	ground_to_pelvis_tz	rx	ry	rz	femur_l_to_tibia_l_rz	tibia_l_to_metatarsal_l_rz	rx	ry	rz	femur_r_to_tibia_r_rz	tibia_r_to_metatarsal_r_rz
     18.50000000	    131.82808271	     57.58592248	   -139.68450839	     -0.22145742	     -0.33719649	     -3.11711023	    -41.29121375	     21.88028598	      7.56193521	     39.74104516	     19.34075641	    -71.52599655	     21.79632945	     19.30642747	     32.54799376	     34.11570720
     18.51700000	    132.76733822	     56.61159761	   -138.40298326	     -0.21697984	     -0.33836541	     -3.12290264	    -40.26317759	     23.30470794	      6.20085513	     39.50392744	     20.22857611	    -71.26657630	     23.68371587	     18.92114236	     35.23248188	     30.99969477
     18.53300000	    133.25081975	     55.13237348	   -136.58864060	     -0.21418156	     -0.33667910	     -3.12881196	    -39.15720760	     24.08134329	      3.94852405	     38.61070577	     21.28285773	    -71.13456562	     25.40939080	     17.44192009	     36.84841029	     29.74280817
     18.55000000	    132.61036514	     52.99441596	   -134.59438751	     -0.21333829	     -0.33112585	     -3.13094706	    -38.95313156	     23.45316147	      1.47191818	     37.22277902	     22.69207185	    -70.95356326	     23.89392749	     14.30457993	     37.61461023	     28.88049030
     18.56700000	    131.13909890	     50.52787459	   -133.03911804	     -0.21295925	     -0.32294921	     -3.12919931	    -39.94289766	     21.39163578	     -0.70921539	     36.30393007	     23.41939813	    -70.68467600	     20.39053508	     10.87474723	     36.97477625	     28.13597564
     18.58300000	    129.22495447	     48.71550833	   -132.10974936	     -0.20964832	     -0.31577274	     -3.12530865	    -41.82091297	     19.36656107	     -1.50303810	     36.86301975	     23.36311285	    -70.86766037	     18.20676025	      9.98070655	     36.18731595	     27.84193425
     18.60000000	    127.91777653	     47.84944137	   -132.47455230	     -0.20162084	     -0.31205287	     -3.12086546	    -43.75135773	     17.76625270	     -1.09638288	     39.06865620	     22.21947572	    -70.59237489	     16.25291547	     10.35390300	     35.77544115	     27.49113478
     18.61700000	    127.50162312	     47.56987471	   -133.36537012	     -0.19151175	     -0.31195888	     -3.11838211	    -45.76683519	     17.75120105	      0.12964478	     42.31753147	     21.05559769	    -70.42215302	     15.92710499	     11.73833876	     36.54834391	     27.08698067
     18.63300000	    128.14840911	     47.47855225	   -135.11448661	     -0.17966746	     -0.31444995	     -3.11678919	    -47.43631898	     17.43212727	      1.19462592	     45.56207810	     19.65132985	    -69.88484789	     16.06703877	     13.33164771	     37.97141177	     26.34505669
     18.65000000	    130.01888378	     47.46896365	   -137.87176430	     -0.16546318	     -0.31799703	     -3.11611121	    -49.12096363	     17.01488693	      2.38722214	     48.66901058	     19.84832984	    -68.43352658	     15.46296291	     14.27907274	     39.25076810	     26.18235060
     18.66700000	    131.86082518	     47.22283027	   -140.27521499	     -0.15231588	     -0.32068141	     -3.11723980	    -50.84220374	     17.40107883	      3.27528318	     51.88484027	     17.92122558	    -66.87054700	     13.72180757	     13.90798172	     40.34838786	     26.34914070
     18.68300000	    133.75687954	     46.68167810	   -142.64493477	     -0.14001488	     -0.32263076	     -3.11899063	    -52.72170419	     17.71636076	      3.68722874	     54.90385563	     15.51376443	    -65.01988790	     11.56634597	     12.94844662	     41.19672775	     25.98525795
     18.70000000	    135.11972328	     45.85955252	   -144.55699393	     -0.12936323	     -0.32331623	     -3.12074871	    -55.32586591	     18.40706235	      4.13222929	     57.58209464	     13.67817913	    -63.44571821	      9.52202509	     12.00855453	     41.68435473	     26.08127478
     18.71700000	    136.86331747	     45.48843890	   -146.49086353	     -0.11777793	     -0.32520376	     -3.12444807	    -57.36466056	     19.85539006	      4.57828727	     59.52142031	     11.74656129	    -61.82824694	      8.74969372	     11.87196959	     42.39010446	     26.80864006
     18.73300000	    138.08394676	     45.00086974	   -147.94918916	     -0.10695140	     -0.32674004	     -3.12774858	    -60.19023703	     21.43398293	      5.28148578	     61.14406655	      9.80256340	    -60.84610318	      8.92509613	     12.46880646	     43.28067884	     27.48452902
     18.75000000	    139.27873570	     44.55468854	   -148.98698956	     -0.09710672	     -0.32842263	     -3.13305941	    -62.62668718	     23.56564133	      5.81695540	     61.75476682	      8.07379892	    -59.66679501	      9.44073902	     12.82318960	     44.17193977	     27.68355478
     18.76700000	    140.49564572	     43.62227130	   -150.00326419	     -0.08845463	     -0.32929601	     -3.13804578	    -65.01668102	     25.44020559	      5.89806910	     61.26597497	      7.04538506	    -58.06294589	      9.44797536	     12.55663934	     44.60458927	     27.28578949
     18.78300000	    141.52177761	     42.72520602	   -150.78792866	     -0.07999172	     -0.32994058	     -3.14323730	    -67.60883643	     28.06115197	      6.79889187	     59.80824866	      6.87773577	    -56.43097638	      9.15052161	     12.01826670	     44.89086637	     27.11996125
     18.80000000	    142.78003464	     41.61642346	   -151.86067855	     -0.07120533	     -0.32993632	     -3.14820870	    -69.84029800	     30.71191387	      7.70351354	     57.02928066	      7.87301706	    -54.57809928	      7.93953693	     10.74271938	     44.81044422	     27.65141976
     18.81700000	    144.27639405	     39.99442954	   -153.01190490	     -0.06336198	     -0.33002344	     -3.15342939	    -70.91562049	     32.63599896	      7.17482408	     53.12126502	      9.13198972	    -52.56477864	      6.36137239	      8.87607473	     44.96250502	     27.45550953
     18.83300000	    145.65246730	     38.30843770	   -154.22628113	     -0.05572920	     -0.33048355	     -3.15799489	    -70.74456535	     34.19417212	      5.98622333	     48.14185564	      9.53870452	    -50.46441673	      4.87052166	      7.47267450	     44.59486222	     26.98871790
     18.85000000	    147.00675143	     36.28132926	   -155.79204373	     -0.04687800	     -0.33127413	     -3.16132303	    -70.95919746	     34.92018955	      4.86410175	     43.20231171	     11.83916612	    -48.69089836	      3.03137857	      6.30356675	     44.36014922	     27.39730294
     18.86700000	    148.09279008	     33.62711296	   -157.75016883	     -0.03689127	     -0.33193743	     -3.16225193	    -71.36278326	     34.71109623	      3.43237896	     38.22128509	     15.19533731	    -47.19799963	      0.32495990	      5.24537233	     44.07436153	     27.68756021
     18.88300000	    148.76916525	     31.14831174	   -159.39417209	     -0.02757805	     -0.33275468	     -3.16329325	    -71.62173962	     35.03123156	      2.18234289	     33.45010670	     18.53988743	    -45.68118242	     -1.87444482	      4.70013671	     43.70741325	     27.28191745
     18.90000000	    149.36085967	     28.80293910	   -160.49713924	     -0.01981906	     -0.33389819	     -3.16601270	    -71.01276400	     37.14208450	      0.81566324	     28.55532724	     22.29909023	    -44.25405258	     -4.08030667	      3.84704754	     43.50157805	     26.77397858
     18.91700000	    150.14211281	     27.37272598	   -161.52283905	     -0.01155565	     -0.33586945	     -3.17056423	    -70.47048967	     40.62637900	      1.20001070	     25.26452952	     25.79005273	    -42.70348855	     -5.78965674	      3.26717372	     43.28615984	     27.33953746
     18.93300000	    150.75257214	     26.95556040	   -162.44430184	     -0.00322637	     -0.33845411	     -3.17500050	    -69.58601564	     43.67192761	      2.27925735	     23.17241144	     27.38566823	    -41.28746470	     -5.17480334	      4.42694151	     43.06119084	     28.66789376
     18.95000000	    152.25707944	     26.14303988	   -164.51018453	      0.00795094	     -0.34289878	     -3.17980595	    -66.67476937	     41.67130928	      0.94480752	     22.53462329	     27.18088832	    -39.15167165	     -7.36853678	      4.62227651	     42.71491453	     29.70274459
     18.96700000	    153.67956216	     26.10781675	   -166.47026609	      0.01867459	     -0.34870015	     -3.18540305	    -64.94191011	     40.12024617	      0.77791741	     24.87446530	     23.13886408	    -37.31503804	     -7.26107790	      6.32879664	     43.11036006	     30.71498101
     18.98300000	    154.92079984	     26.07129321	   -167.70920682	      0.02797241	     -0.35266841	     -3.19229979	    -64.58887168	     40.37033036	      1.94090615	     27.01012343	     20.68984850	    -35.85660480	     -6.03823491	      8.12542075	     43.16461044	     32.87093070
     19.00000000	    155.24245781	     25.22836387	   -168.34741972	      0.03572278	     -0.35292070	     -3.19654943	    -64.01651787	     41.62801776	      2.20088137	     26.82049613	     21.19736981	    -35.12370764	     -4.92450663	      9.75531573	     42.56823243	     35.23648982
     19.01700000	    154.80285571	     23.26711422	   -169.67044511	      0.04605055	     -0.35118158	     -3.19586875	    -65.03695300	     39.03510363	      2.06163533	     28.72926308	     20.50999850	    -34.77902994	     -5.25182519	     11.78607373	     41.03447136	     37.86526740
     19.03300000	    154.27838457	     20.98906644	   -170.70333728	      0.05592899	     -0.34745947	     -3.19660860	    -64.68439941	     36.76765140	      1.02379479	     28.84836646	     20.91425254	    -34.21473139	     -5.70440284	     13.12405242	     38.94397119	     40.48861723
     19.05000000	    153.73494126	     18.62292899	   -171.63207910	      0.06597075	     -0.34271119	     -3.19827433	    -64.03178628	     35.51428879	      0.12817936	     28.60400156	     21.27741864	    -33.46332846	     -6.54413776	     13.74283062	     36.53456524	     43.31740761
     19.06700000	    152.51467780	     16.36891618	   -172.14520859	      0.07437235	     -0.33706873	     -3.19896350	    -64.08064192	     35.04090213	     -0.53484778	     28.36915637	     21.80344896	    -33.68487753	     -5.67327734	     14.99716909	     34.53649736	     45.83507056
     19.08300000	    151.79157875	     14.38868564	   -172.70855940	      0.08200915	     -0.33323102	     -3.20247892	    -63.67504109	     35.38224966	     -0.84502416	     28.47337602	     21.84404943	    -33.80368397	     -5.07592930	     15.86989079	     33.97807138	     46.43770850
     19.10000000	    151.01124163	     12.31932794	   -173.78276684	      0.09149362	     -0.33034100	     -3.20546008	    -64.11466405	     34.61790977	     -0.84255056	     29.35265477	     21.92282810	    -34.63482654	     -4.83948865	     17.02395298	     34.59993467	     46.15715630
     19.11700000	    150.28557979	     10.28390805	   -174.74878422	      0.10009171	     -0.32831947	     -3.20914629	    -64.16966432	     32.51816068	     -1.70692345	     30.43478139	     21.09957272	    -35.87807463	     -5.23191226	     17.31890254	     35.53996143	     46.37741080
